<?xml version="1.0" encoding="UTF-8" standalone="no"?>
<!-- Created with Inkscape (http://www.inkscape.org/) -->

<svg
   xmlns:dc="http://purl.org/dc/elements/1.1/"
   xmlns:cc="http://creativecommons.org/ns#"
   xmlns:rdf="http://www.w3.org/1999/02/22-rdf-syntax-ns#"
   xmlns:svg="http://www.w3.org/2000/svg"
   xmlns="http://www.w3.org/2000/svg"
   xmlns:sodipodi="http://sodipodi.sourceforge.net/DTD/sodipodi-0.dtd"
   xmlns:inkscape="http://www.inkscape.org/namespaces/inkscape"
   width="210mm"
   height="297mm"
   viewBox="0 0 210 297"
   version="1.1"
   id="svg8"
   inkscape:version="0.92.3 (2405546, 2018-03-11)"
   sodipodi:docname="Aplicativo.svg">
  <defs
     id="defs2" />
  <sodipodi:namedview
     id="base"
     pagecolor="#ffffff"
     bordercolor="#666666"
     borderopacity="1.0"
     inkscape:pageopacity="0.0"
     inkscape:pageshadow="2"
     inkscape:zoom="0.35"
     inkscape:cx="307.17099"
     inkscape:cy="504.8155"
     inkscape:document-units="mm"
     inkscape:current-layer="layer1"
     showgrid="false"
     inkscape:window-width="1366"
     inkscape:window-height="705"
     inkscape:window-x="1592"
     inkscape:window-y="-8"
     inkscape:window-maximized="1" />
  <metadata
     id="metadata5">
    <rdf:RDF>
      <cc:Work
         rdf:about="">
        <dc:format>image/svg+xml</dc:format>
        <dc:type
           rdf:resource="http://purl.org/dc/dcmitype/StillImage" />
        <dc:title></dc:title>
      </cc:Work>
    </rdf:RDF>
  </metadata>
  <g
     inkscape:label="Camada 1"
     inkscape:groupmode="layer"
     id="layer1">
    <g
       id="g995"
       transform="matrix(0.26458333,0,0,0.26458333,37.948815,80.192855)"
       style="fill:#519839;fill-opacity:1"
       inkscape:export-xdpi="96"
       inkscape:export-ydpi="96">
      <g
         id="g923"
         style="fill:#519839;fill-opacity:1">
	<g
   id="g921"
   style="fill:#519839;fill-opacity:1">
		<g
   id="g919"
   style="fill:#519839;fill-opacity:1">
			<path
   id="path889"
   d="m 16,64 h 256 v 16 h 16 V 40 C 288,17.944 270.056,0 248,0 H 40 C 17.944,0 0,17.944 0,40 V 400 H 16 Z M 16,40 C 16,26.768 26.768,16 40,16 h 208 c 13.232,0 24,10.768 24,24 v 8 H 16 Z"
   inkscape:connector-curvature="0"
   style="fill:#519839;fill-opacity:1" />

			<path
   id="path891"
   d="m 0,456 c 0,22.056 17.944,40 40,40 h 208 c 22.056,0 40,-17.944 40,-40 V 416 H 0 Z m 16,-24 h 256 v 24 c 0,13.232 -10.768,24 -24,24 H 40 C 26.768,480 16,469.232 16,456 Z"
   inkscape:connector-curvature="0"
   style="fill:#519839;fill-opacity:1" />

			<rect
   id="rect893"
   height="16"
   width="80"
   y="448"
   x="104"
   style="fill:#519839;fill-opacity:1" />

			<path
   id="path895"
   d="m 360,248 c -26.472,0 -48,21.528 -48,48 0,26.472 21.528,48 48,48 26.472,0 48,-21.528 48,-48 0,-26.472 -21.528,-48 -48,-48 z m 0,80 c -17.648,0 -32,-14.352 -32,-32 0,-17.648 14.352,-32 32,-32 17.648,0 32,14.352 32,32 0,17.648 -14.352,32 -32,32 z"
   inkscape:connector-curvature="0"
   style="fill:#519839;fill-opacity:1" />

			<path
   id="path897"
   d="m 136,144 c -22.056,0 -40,17.944 -40,40 0,22.056 17.944,40 40,40 22.056,0 40,-17.944 40,-40 0,-22.056 -17.944,-40 -40,-40 z m 0,64 c -13.232,0 -24,-10.768 -24,-24 0,-13.232 10.768,-24 24,-24 13.232,0 24,10.768 24,24 0,13.232 -10.768,24 -24,24 z"
   inkscape:connector-curvature="0"
   style="fill:#519839;fill-opacity:1" />

			<path
   id="path899"
   d="m 164.4,258.8 c 1.472,-0.56 2.936,-1.176 4.392,-1.84 l 24.8,16.536 31.904,-31.904 -16.536,-24.8 c 0.664,-1.464 1.28,-2.928 1.84,-4.392 l 29.2,-5.84 v -45.12 l -29.2,-5.84 c -1.128,-2.92 -2.456,-5.84 -3.968,-8.728 l -14.16,7.448 c 1.848,3.528 3.352,7.104 4.44,10.608 l 1.416,4.536 25.472,5.096 v 18.88 l -25.48,5.096 -1.416,4.536 c -1.088,3.504 -2.584,7.072 -4.44,10.608 l -2.208,4.208 14.44,21.664 -13.344,13.352 -21.664,-14.448 -4.2,2.208 c -3.512,1.848 -7.088,3.344 -10.616,4.448 l -4.528,1.416 L 145.448,272 H 126.56 l -5.096,-25.472 -4.528,-1.416 c -3.528,-1.104 -7.104,-2.6 -10.616,-4.448 l -4.2,-2.208 -21.664,14.448 -17.984,-17.992 -11.312,11.312 27.264,27.264 24.8,-16.536 c 1.456,0.664 2.92,1.28 4.392,1.84 l 5.84,29.2 h 45.112 z"
   inkscape:connector-curvature="0"
   style="fill:#519839;fill-opacity:1" />

			<path
   id="path901"
   d="m 32,161.44 v 45.12 l 29.2,5.84 c 1.128,2.92 2.456,5.84 3.968,8.728 l 14.16,-7.448 c -1.848,-3.528 -3.352,-7.104 -4.44,-10.608 L 73.472,198.536 48,193.44 v -18.88 l 25.48,-5.096 1.416,-4.536 c 1.088,-3.504 2.584,-7.072 4.44,-10.608 l 2.208,-4.208 -14.44,-21.664 13.352,-13.352 21.672,14.448 4.2,-2.216 c 3.504,-1.84 7.072,-3.336 10.6,-4.44 l 4.528,-1.416 L 126.552,96 h 18.888 l 5.096,25.472 4.528,1.416 c 3.528,1.104 7.104,2.6 10.6,4.44 l 4.2,2.216 21.672,-14.448 17.992,17.992 11.312,-11.312 -27.256,-27.264 -24.808,16.528 c -1.464,-0.664 -2.92,-1.272 -4.392,-1.84 L 158.552,80 H 113.44 l -5.84,29.2 c -1.472,0.568 -2.928,1.176 -4.392,1.84 L 78.4,94.512 l -31.896,31.896 16.536,24.8 c -0.664,1.464 -1.28,2.928 -1.84,4.392 z"
   inkscape:connector-curvature="0"
   style="fill:#519839;fill-opacity:1" />

			<rect
   id="rect903"
   height="16"
   width="16"
   y="304"
   x="128"
   style="fill:#519839;fill-opacity:1" />

			<rect
   id="rect905"
   height="16"
   width="16"
   y="336"
   x="128"
   style="fill:#519839;fill-opacity:1" />

			<rect
   id="rect907"
   height="16"
   width="16"
   y="368"
   x="128"
   style="fill:#519839;fill-opacity:1" />

			<rect
   id="rect909"
   height="16"
   width="16"
   y="128"
   x="352"
   style="fill:#519839;fill-opacity:1" />

			<rect
   id="rect911"
   height="16"
   width="16"
   y="96"
   x="352"
   style="fill:#519839;fill-opacity:1" />

			<rect
   id="rect913"
   height="16"
   width="16"
   y="64"
   x="352"
   style="fill:#519839;fill-opacity:1" />

			<path
   id="path915"
   d="m 496,326.56 v -61.12 l -39.456,-7.88 c -0.92,-2.312 -1.936,-4.6 -3.032,-6.856 l -14.392,7 c 1.504,3.104 2.832,6.272 3.92,9.44 l 1.504,4.328 35.456,7.088 v 34.872 l -35.456,7.096 -1.504,4.328 c -1.096,3.168 -2.416,6.344 -3.92,9.44 l -2.008,4.12 20.072,30.104 -24.664,24.664 -30.112,-20.064 -4.12,2.008 c -3.096,1.504 -6.272,2.832 -9.44,3.92 l -4.328,1.504 -7.08,35.448 h -34.88 l -7.096,-35.456 -4.328,-1.504 c -3.168,-1.096 -6.344,-2.416 -9.44,-3.92 l -4.12,-2.008 -30.112,20.064 -29.304,-29.296 -11.312,11.312 38.584,38.576 33.48,-22.32 c 0.872,0.376 1.752,0.744 2.632,1.096 L 329.44,432 h 61.128 l 7.88,-39.456 c 0.88,-0.352 1.76,-0.72 2.632,-1.096 l 33.48,22.32 43.224,-43.208 -22.328,-33.488 c 0.376,-0.872 0.744,-1.752 1.096,-2.632 z"
   inkscape:connector-curvature="0"
   style="fill:#519839;fill-opacity:1" />

			<path
   id="path917"
   d="m 242.216,221.44 22.328,33.48 c -0.376,0.872 -0.744,1.752 -1.096,2.632 L 224,265.44 v 61.128 l 39.456,7.88 c 0.92,2.312 1.936,4.6 3.032,6.848 l 14.392,-7 c -1.504,-3.096 -2.832,-6.272 -3.92,-9.44 L 275.456,320.528 240,313.44 v -34.88 l 35.456,-7.096 1.504,-4.328 c 1.096,-3.168 2.416,-6.336 3.92,-9.44 l 2.008,-4.128 -20.072,-30.096 24.664,-24.664 30.104,20.064 4.128,-2 c 3.088,-1.504 6.272,-2.832 9.456,-3.936 l 4.312,-1.504 7.072,-35.432 h 34.888 l 7.088,35.44 4.312,1.504 c 3.176,1.104 6.368,2.432 9.456,3.936 l 4.128,2 30.104,-20.064 29.304,29.304 11.312,-11.312 -38.584,-38.576 -33.488,22.32 c -0.864,-0.376 -1.744,-0.736 -2.624,-1.088 L 390.552,160 H 329.44 l -7.888,39.456 c -0.88,0.352 -1.76,0.712 -2.624,1.088 l -33.488,-22.32 z"
   inkscape:connector-curvature="0"
   style="fill:#519839;fill-opacity:1" />

		</g>

	</g>

</g>
      <g
         id="g925"
         style="fill:#519839;fill-opacity:1">
</g>
      <g
         id="g927"
         style="fill:#519839;fill-opacity:1">
</g>
      <g
         id="g929"
         style="fill:#519839;fill-opacity:1">
</g>
      <g
         id="g931"
         style="fill:#519839;fill-opacity:1">
</g>
      <g
         id="g933"
         style="fill:#519839;fill-opacity:1">
</g>
      <g
         id="g935"
         style="fill:#519839;fill-opacity:1">
</g>
      <g
         id="g937"
         style="fill:#519839;fill-opacity:1">
</g>
      <g
         id="g939"
         style="fill:#519839;fill-opacity:1">
</g>
      <g
         id="g941"
         style="fill:#519839;fill-opacity:1">
</g>
      <g
         id="g943"
         style="fill:#519839;fill-opacity:1">
</g>
      <g
         id="g945"
         style="fill:#519839;fill-opacity:1">
</g>
      <g
         id="g947"
         style="fill:#519839;fill-opacity:1">
</g>
      <g
         id="g949"
         style="fill:#519839;fill-opacity:1">
</g>
      <g
         id="g951"
         style="fill:#519839;fill-opacity:1">
</g>
      <g
         id="g953"
         style="fill:#519839;fill-opacity:1">
</g>
    </g>
  </g>
</svg>
