<?xml version="1.0" encoding="UTF-8" standalone="no"?>
<!-- Created with Inkscape (http://www.inkscape.org/) -->

<svg
   xmlns:dc="http://purl.org/dc/elements/1.1/"
   xmlns:cc="http://creativecommons.org/ns#"
   xmlns:rdf="http://www.w3.org/1999/02/22-rdf-syntax-ns#"
   xmlns:svg="http://www.w3.org/2000/svg"
   xmlns="http://www.w3.org/2000/svg"
   xmlns:sodipodi="http://sodipodi.sourceforge.net/DTD/sodipodi-0.dtd"
   xmlns:inkscape="http://www.inkscape.org/namespaces/inkscape"
   width="210mm"
   height="297mm"
   viewBox="0 0 210 297"
   version="1.1"
   id="svg8"
   inkscape:version="0.92.3 (2405546, 2018-03-11)"
   sodipodi:docname="Lançamento.svg">
  <defs
     id="defs2" />
  <sodipodi:namedview
     id="base"
     pagecolor="#ffffff"
     bordercolor="#666666"
     borderopacity="1.0"
     inkscape:pageopacity="0.0"
     inkscape:pageshadow="2"
     inkscape:zoom="0.1767767"
     inkscape:cx="-307.87013"
     inkscape:cy="-30.281079"
     inkscape:document-units="mm"
     inkscape:current-layer="layer1"
     showgrid="false"
     inkscape:window-width="1366"
     inkscape:window-height="705"
     inkscape:window-x="1592"
     inkscape:window-y="-8"
     inkscape:window-maximized="1" />
  <metadata
     id="metadata5">
    <rdf:RDF>
      <cc:Work
         rdf:about="">
        <dc:format>image/svg+xml</dc:format>
        <dc:type
           rdf:resource="http://purl.org/dc/dcmitype/StillImage" />
        <dc:title></dc:title>
      </cc:Work>
    </rdf:RDF>
  </metadata>
  <g
     inkscape:label="Camada 1"
     inkscape:groupmode="layer"
     id="layer1">
    <g
       id="g1011"
       transform="matrix(0.26458333,0,0,0.26458333,39.072432,82.646264)"
       style="fill:#b04632;fill-opacity:1">
	<path
   id="path997"
   d="m 34.524,225.391 c 4.142,0 7.5,-3.357 7.5,-7.5 V 157.34 c 0,-16.94 10.875,-29.235 25.857,-29.235 h 88.317 c 4.142,0 7.5,-3.357 7.5,-7.5 0,-4.143 -3.358,-7.5 -7.5,-7.5 H 67.881 c -23.292,0 -40.857,19.017 -40.857,44.235 v 60.551 c 0,4.143 3.358,7.5 7.5,7.5 z"
   inkscape:connector-curvature="0"
   style="fill:#b04632;fill-opacity:1" />

	<path
   id="path999"
   d="m 67.881,142.385 c -6.925,0 -11.577,6.01 -11.577,14.955 v 231.585 c 0,1.751 0.613,3.447 1.732,4.794 1.873,2.254 5.443,4.661 9.845,4.661 h 376.237 c 4.4,0 7.971,-2.406 9.844,-4.659 1.121,-1.347 1.734,-3.044 1.734,-4.796 v -38.799 c 0,-4.143 -3.357,-7.5 -7.5,-7.5 -4.143,0 -7.5,3.357 -7.5,7.5 V 383.38 H 71.304 V 157.385 h 87.402 c 4.142,0 7.5,-3.357 7.5,-7.5 0,-4.143 -3.358,-7.5 -7.5,-7.5 z"
   inkscape:connector-curvature="0"
   style="fill:#b04632;fill-opacity:1" />

	<path
   id="path1001"
   d="m 448.196,327.745 c 4.143,0 7.5,-3.357 7.5,-7.5 V 157.34 c 0,-8.945 -4.653,-14.955 -11.578,-14.955 h -88.783 c -4.143,0 -7.5,3.357 -7.5,7.5 0,4.143 3.357,7.5 7.5,7.5 h 85.361 v 162.859 c 0,4.143 3.358,7.501 7.5,7.501 z"
   inkscape:connector-curvature="0"
   style="fill:#b04632;fill-opacity:1" />

	<path
   id="path1003"
   d="M 497.743,429.588 H 484.98 V 157.339 c 0,-25.215 -17.566,-44.229 -40.86,-44.229 h -87.65 c -4.143,0 -7.5,3.357 -7.5,7.5 0,4.143 3.357,7.5 7.5,7.5 h 87.65 c 14.984,0 25.86,12.293 25.86,29.229 V 429.588 H 307.803 c -7.861,0 -14.257,6.396 -14.257,14.257 v 6.928 h -75.092 v -6.928 c 0,-7.861 -6.396,-14.257 -14.257,-14.257 H 42.02 v -181.7 c 0,-4.143 -3.358,-7.5 -7.5,-7.5 -4.142,0 -7.5,3.357 -7.5,7.5 V 429.587 H 14.257 C 6.396,429.588 0,435.983 0,443.844 v 17.617 c 0,17.784 14.468,32.252 32.252,32.252 h 447.496 c 17.784,0 32.252,-14.468 32.252,-32.252 v -17.617 c 0,-7.861 -6.396,-14.256 -14.257,-14.256 z M 497,461.462 c 0,9.513 -7.739,17.252 -17.252,17.252 H 32.252 C 22.739,478.714 15,470.975 15,461.462 v -16.874 h 19.501 c 0.006,0 0.013,10e-4 0.019,10e-4 0.006,0 0.013,-10e-4 0.019,-10e-4 h 168.915 v 6.928 c 0,7.861 6.396,14.257 14.257,14.257 h 76.578 c 7.861,0 14.257,-6.396 14.257,-14.257 v -6.928 h 168.915 c 0.006,0 0.013,10e-4 0.019,10e-4 0.006,0 0.013,-10e-4 0.019,-10e-4 H 497 Z"
   inkscape:connector-curvature="0"
   style="fill:#b04632;fill-opacity:1" />

	<path
   id="path1005"
   d="m 256,173.257 c 18.651,0 33.825,-15.174 33.825,-33.825 0,-18.651 -15.174,-33.825 -33.825,-33.825 -18.651,0 -33.825,15.174 -33.825,33.825 0,18.651 15.174,33.825 33.825,33.825 z m 0,-52.65 c 10.38,0 18.825,8.445 18.825,18.825 0,10.38 -8.445,18.825 -18.825,18.825 -10.38,0 -18.825,-8.445 -18.825,-18.825 0,-10.38 8.445,-18.825 18.825,-18.825 z"
   inkscape:connector-curvature="0"
   style="fill:#b04632;fill-opacity:1" />

	<path
   id="path1007"
   d="m 181.442,152.001 c -20.555,20.049 -32.272,47.692 -32.272,76.498 0,2.419 0.08,4.81 0.237,7.099 0.675,9.921 8.978,17.691 18.903,17.691 h 39.743 c 0.777,2.092 1.56,4.169 2.354,6.21 3.105,7.975 10.641,13.128 19.198,13.128 h 52.791 c 8.558,0 16.093,-5.153 19.197,-13.128 0.794,-2.041 1.577,-4.118 2.354,-6.21 h 39.744 c 9.924,0 18.227,-7.771 18.902,-17.688 0.157,-2.297 0.237,-4.687 0.237,-7.103 0,-28.806 -11.717,-56.448 -32.272,-76.498 2.191,-14.015 3.416,-26.75 3.416,-37.102 0,-52.775 -66.224,-91.161 -73.79,-95.373 -0.04,-0.022 -0.082,-0.046 -0.119,-0.066 -0.01,-0.005 -0.019,-0.01 -0.029,-0.016 -0.225,-0.125 -0.385,-0.212 -0.463,-0.254 -0.01,-0.005 -0.02,-0.008 -0.029,-0.014 -0.252,-0.135 -0.509,-0.251 -0.768,-0.355 -0.068,-0.027 -0.137,-0.049 -0.205,-0.074 -0.212,-0.078 -0.426,-0.146 -0.641,-0.204 -0.07,-0.019 -0.139,-0.036 -0.209,-0.053 -0.233,-0.055 -0.467,-0.099 -0.701,-0.131 -0.049,-0.007 -0.097,-0.016 -0.146,-0.021 -0.581,-0.068 -1.162,-0.068 -1.735,-0.001 -0.061,0.007 -0.122,0.019 -0.183,0.027 -0.221,0.032 -0.44,0.072 -0.658,0.123 -0.077,0.018 -0.154,0.037 -0.231,0.057 -0.229,0.061 -0.455,0.133 -0.678,0.216 -0.045,0.017 -0.091,0.03 -0.135,0.047 -0.274,0.108 -0.541,0.231 -0.8,0.371 -0.008,0.004 -0.017,0.007 -0.026,0.012 -0.428,0.232 -10.633,5.794 -23.394,15.49 -3.298,2.507 -3.939,7.212 -1.433,10.51 2.507,3.299 7.212,3.939 10.509,1.434 7.458,-5.668 14.037,-9.848 17.885,-12.165 8.195,4.948 28.818,18.39 44.262,36.832 0.047,0.056 0.094,0.112 0.141,0.168 0.417,0.5 0.829,1.005 1.238,1.512 0.188,0.233 0.373,0.466 0.557,0.698 0.286,0.36 0.569,0.721 0.851,1.084 0.101,0.131 0.197,0.261 0.297,0.391 h -94.69 c 2.396,-3.126 5.057,-6.251 7.97,-9.357 2.834,-3.021 2.682,-7.768 -0.339,-10.602 -3.021,-2.833 -7.768,-2.682 -10.601,0.34 -3.939,4.2 -7.47,8.458 -10.596,12.735 -0.099,0.12 -0.2,0.237 -0.293,0.364 -0.313,0.433 -0.607,0.866 -0.911,1.298 -0.093,0.133 -0.187,0.266 -0.279,0.398 -0.579,0.83 -1.141,1.66 -1.688,2.491 -0.109,0.165 -0.217,0.329 -0.324,0.494 -0.516,0.792 -1.016,1.585 -1.502,2.379 -0.125,0.204 -0.25,0.408 -0.373,0.611 -0.458,0.76 -0.902,1.52 -1.333,2.28 -0.075,0.132 -0.158,0.264 -0.232,0.396 -0.016,0.029 -0.027,0.06 -0.042,0.089 -6.685,11.94 -10.08,23.953 -10.08,35.839 -0.002,10.353 1.223,23.088 3.414,37.103 z m -13.132,86.288 c -2.066,0 -3.796,-1.629 -3.938,-3.715 -0.134,-1.954 -0.203,-3.998 -0.203,-6.075 0,-21.198 7.381,-41.665 20.591,-57.932 4.379,21.935 10.637,45.646 18.011,67.722 z m 179.52,-9.79 c 0,2.075 -0.068,4.12 -0.202,6.08 -0.142,2.08 -1.871,3.71 -3.938,3.71 h -34.462 c 7.373,-22.075 13.632,-45.787 18.011,-67.721 13.21,16.266 20.591,36.733 20.591,57.931 z M 312.745,90.143 c 4.807,9.842 6.228,18.253 6.228,24.756 0,32.862 -13.774,93.987 -31.359,139.158 -0.844,2.168 -2.893,3.569 -5.219,3.569 h -52.791 c -2.327,0 -4.375,-1.401 -5.22,-3.569 -17.584,-45.17 -31.359,-106.295 -31.359,-139.158 0,-8.074 2.086,-16.361 6.196,-24.756 z"
   inkscape:connector-curvature="0"
   style="fill:#b04632;fill-opacity:1" />

	<path
   id="path1009"
   d="m 255.999,351.726 c -6.247,-5.561 -10.214,-13.217 -11.088,-21.641 -0.428,-4.119 -4.117,-7.117 -8.234,-6.686 -4.12,0.428 -7.114,4.114 -6.686,8.234 1.521,14.661 9.509,27.706 21.916,35.788 1.244,0.811 2.669,1.216 4.094,1.216 1.425,0 2.85,-0.405 4.094,-1.216 13.887,-9.048 22.178,-24.325 22.178,-40.866 0,-16.542 -8.291,-31.819 -22.178,-40.866 -2.488,-1.621 -5.699,-1.621 -8.188,0 -4.465,2.908 -8.404,6.505 -11.709,10.69 -2.567,3.251 -2.013,7.967 1.238,10.534 3.25,2.565 7.966,2.014 10.534,-1.237 1.224,-1.55 2.572,-2.982 4.034,-4.288 7.132,6.359 11.269,15.449 11.269,25.167 -0.002,9.72 -4.14,18.811 -11.274,25.171 z"
   inkscape:connector-curvature="0"
   style="fill:#b04632;fill-opacity:1" />

</g>
  </g>
</svg>
