<?xml version="1.0" encoding="UTF-8" standalone="no"?>
<!-- Created with Inkscape (http://www.inkscape.org/) -->

<svg
   xmlns:dc="http://purl.org/dc/elements/1.1/"
   xmlns:cc="http://creativecommons.org/ns#"
   xmlns:rdf="http://www.w3.org/1999/02/22-rdf-syntax-ns#"
   xmlns:svg="http://www.w3.org/2000/svg"
   xmlns="http://www.w3.org/2000/svg"
   xmlns:sodipodi="http://sodipodi.sourceforge.net/DTD/sodipodi-0.dtd"
   xmlns:inkscape="http://www.inkscape.org/namespaces/inkscape"
   width="210mm"
   height="297mm"
   viewBox="0 0 210 297"
   version="1.1"
   id="svg8"
   inkscape:version="0.92.3 (2405546, 2018-03-11)"
   sodipodi:docname="Site.svg">
  <defs
     id="defs2" />
  <sodipodi:namedview
     id="base"
     pagecolor="#ffffff"
     bordercolor="#666666"
     borderopacity="1.0"
     inkscape:pageopacity="0.0"
     inkscape:pageshadow="2"
     inkscape:zoom="0.35"
     inkscape:cx="307.17099"
     inkscape:cy="504.8155"
     inkscape:document-units="mm"
     inkscape:current-layer="layer1"
     showgrid="false"
     inkscape:window-width="1366"
     inkscape:window-height="705"
     inkscape:window-x="1592"
     inkscape:window-y="-8"
     inkscape:window-maximized="1" />
  <metadata
     id="metadata5">
    <rdf:RDF>
      <cc:Work
         rdf:about="">
        <dc:format>image/svg+xml</dc:format>
        <dc:type
           rdf:resource="http://purl.org/dc/dcmitype/StillImage" />
        <dc:title></dc:title>
      </cc:Work>
    </rdf:RDF>
  </metadata>
  <g
     inkscape:label="Camada 1"
     inkscape:groupmode="layer"
     id="layer1">
    <g
       id="g854"
       transform="matrix(0.26458333,0,0,0.26458333,40.632439,85.900298)"
       style="fill:#0079bf;fill-opacity:1"
       inkscape:export-xdpi="96"
       inkscape:export-ydpi="96">
      <path
         id="path828"
         d="M 462.5,22.5 H 7.5 C 3.358,22.5 0,25.857 0,30 v 410 c 0,4.143 3.358,7.5 7.5,7.5 h 455 c 4.142,0 7.5,-3.357 7.5,-7.5 v -80 c 0,-4.143 -3.358,-7.5 -7.5,-7.5 -4.142,0 -7.5,3.357 -7.5,7.5 v 72.5 H 15 V 97.5 H 455 V 330 c 0,4.143 3.358,7.5 7.5,7.5 4.142,0 7.5,-3.357 7.5,-7.5 V 30 c 0,-4.143 -3.358,-7.5 -7.5,-7.5 z M 15,37.5 h 277.5 v 45 H 15 Z m 292.5,45 v -45 H 455 v 45 z"
         inkscape:connector-curvature="0"
         style="fill:#0079bf;fill-opacity:1" />
      <path
         id="path830"
         d="m 381.5,52 c -4.411,0 -8,3.589 -8,8 0,4.411 3.589,8 8,8 4.411,0 8,-3.589 8,-8 0,-4.411 -3.589,-8 -8,-8 z"
         inkscape:connector-curvature="0"
         style="fill:#0079bf;fill-opacity:1" />
      <path
         id="path832"
         d="m 340.5,52 c -4.411,0 -8,3.589 -8,8 0,4.411 3.589,8 8,8 4.411,0 8,-3.589 8,-8 0,-4.411 -3.589,-8 -8,-8 z"
         inkscape:connector-curvature="0"
         style="fill:#0079bf;fill-opacity:1" />
      <path
         id="path834"
         d="m 422.5,52 c -4.411,0 -8,3.589 -8,8 0,4.411 3.589,8 8,8 4.411,0 8,-3.589 8,-8 0,-4.411 -3.589,-8 -8,-8 z"
         inkscape:connector-curvature="0"
         style="fill:#0079bf;fill-opacity:1" />
      <path
         id="path836"
         d="m 148.714,225.989 c 2.949,-0.369 5.402,-2.443 6.254,-5.29 l 17.253,-57.594 c 1.188,-3.968 -1.064,-8.148 -5.032,-9.337 -3.966,-1.188 -8.148,1.064 -9.337,5.032 l -12.374,41.306 -11.928,-19.908 c -1.355,-2.262 -3.797,-3.646 -6.434,-3.646 -2.637,0 -5.079,1.384 -6.434,3.646 l -11.928,19.908 -12.372,-41.298 c -1.188,-3.968 -5.369,-6.221 -9.337,-5.032 -3.968,1.188 -6.221,5.369 -5.032,9.337 l 17.251,57.586 c 0.853,2.847 3.306,4.921 6.254,5.29 0.312,0.039 0.623,0.058 0.932,0.058 2.612,0 5.066,-1.366 6.432,-3.646 l 14.233,-23.756 14.233,23.756 c 1.53,2.549 4.42,3.959 7.366,3.588 z"
         inkscape:connector-curvature="0"
         style="fill:#0079bf;fill-opacity:1" />
      <path
         id="path838"
         d="m 206.358,225.982 c 0.312,0.039 0.623,0.058 0.932,0.058 2.612,0 5.066,-1.366 6.432,-3.646 l 14.233,-23.756 14.233,23.756 c 1.527,2.549 4.416,3.957 7.364,3.588 2.949,-0.369 5.402,-2.443 6.254,-5.29 l 17.253,-57.594 c 1.188,-3.968 -1.064,-8.148 -5.032,-9.337 -3.968,-1.189 -8.148,1.063 -9.337,5.032 L 246.316,200.1 234.388,180.192 c -1.355,-2.262 -3.797,-3.646 -6.434,-3.646 -2.637,0 -5.079,1.384 -6.434,3.646 L 209.594,200.1 197.222,158.801 c -1.188,-3.968 -5.367,-6.222 -9.337,-5.032 -3.968,1.188 -6.221,5.369 -5.032,9.337 l 17.251,57.587 c 0.853,2.846 3.306,4.92 6.254,5.289 z"
         inkscape:connector-curvature="0"
         style="fill:#0079bf;fill-opacity:1" />
      <path
         id="path840"
         d="m 368.865,153.755 c -3.967,-1.188 -8.148,1.064 -9.337,5.032 l -12.374,41.305 -11.928,-19.908 c -1.355,-2.262 -3.797,-3.646 -6.434,-3.646 -2.637,0 -5.079,1.384 -6.434,3.646 l -11.928,19.908 -12.372,-41.298 c -1.189,-3.967 -5.367,-6.22 -9.337,-5.032 -3.968,1.188 -6.221,5.369 -5.032,9.337 l 17.251,57.586 c 0.853,2.847 3.306,4.921 6.254,5.29 2.949,0.369 5.836,-1.038 7.364,-3.588 l 14.233,-23.756 14.233,23.756 c 1.366,2.279 3.819,3.646 6.432,3.646 0.309,0 0.621,-0.019 0.932,-0.058 2.949,-0.369 5.402,-2.443 6.254,-5.29 l 17.253,-57.593 c 1.19,-3.968 -1.062,-8.149 -5.03,-9.337 z"
         inkscape:connector-curvature="0"
         style="fill:#0079bf;fill-opacity:1" />
      <path
         id="path842"
         d="m 136.7,268.547 c 0,-4.143 -3.358,-7.5 -7.5,-7.5 h -40 c -4.142,0 -7.5,3.357 -7.5,7.5 v 40 c 0,4.143 3.358,7.5 7.5,7.5 h 40 c 4.142,0 7.5,-3.357 7.5,-7.5 z m -15,32.5 h -25 v -25 h 25 z"
         inkscape:connector-curvature="0"
         style="fill:#0079bf;fill-opacity:1" />
      <path
         id="path844"
         d="m 129.2,331.047 h -40 c -4.142,0 -7.5,3.357 -7.5,7.5 v 40 c 0,4.143 3.358,7.5 7.5,7.5 h 40 c 4.142,0 7.5,-3.357 7.5,-7.5 v -40 c 0,-4.143 -3.358,-7.5 -7.5,-7.5 z m -7.5,40 h -25 v -25 h 25 z"
         inkscape:connector-curvature="0"
         style="fill:#0079bf;fill-opacity:1" />
      <path
         id="path846"
         d="m 366.712,281.047 h -30 c -4.142,0 -7.5,3.357 -7.5,7.5 0,4.143 3.358,7.5 7.5,7.5 h 30 c 4.142,0 7.5,-3.357 7.5,-7.5 0,-4.143 -3.358,-7.5 -7.5,-7.5 z"
         inkscape:connector-curvature="0"
         style="fill:#0079bf;fill-opacity:1" />
      <path
         id="path848"
         d="M 306.712,281.047 H 159.2 c -4.142,0 -7.5,3.357 -7.5,7.5 0,4.143 3.358,7.5 7.5,7.5 h 147.513 c 4.142,0 7.5,-3.357 7.5,-7.5 0,-4.143 -3.359,-7.5 -7.501,-7.5 z"
         inkscape:connector-curvature="0"
         style="fill:#0079bf;fill-opacity:1" />
      <path
         id="path850"
         d="m 366.712,351.047 h -30 c -4.142,0 -7.5,3.357 -7.5,7.5 0,4.143 3.358,7.5 7.5,7.5 h 30 c 4.142,0 7.5,-3.357 7.5,-7.5 0,-4.143 -3.358,-7.5 -7.5,-7.5 z"
         inkscape:connector-curvature="0"
         style="fill:#0079bf;fill-opacity:1" />
      <path
         id="path852"
         d="M 306.712,351.047 H 159.2 c -4.142,0 -7.5,3.357 -7.5,7.5 0,4.143 3.358,7.5 7.5,7.5 h 147.513 c 4.142,0 7.5,-3.357 7.5,-7.5 0,-4.143 -3.359,-7.5 -7.501,-7.5 z"
         inkscape:connector-curvature="0"
         style="fill:#0079bf;fill-opacity:1" />
    </g>
  </g>
</svg>
